PathFileType	4	(X/Y/Z)	D:\TRACE\spotREDO_2-26-24\spot_baseline_1-platform.trc
DataRate	CameraRate	NumFrames	NumMarkers	Units	OrigDataRate	OrigDataStartFrame	OrigNumFrames
100.00	100.00	      31	5	mm	100.00	1751	      7000
Frame#	Time	Left_Front			Right_Front			Left_Aft			Right_Aft			Post			
		X1	Y1	Z1	X2	Y2	Z2	X3	Y3	Z3	X4	Y4	Z4	X5	Y5	Z5	

1751	17.500	-696.87256	-3.85273	-575.67853	718.08740	5.09204	-490.98376	-768.03912	4.91060	643.64612	801.27753	11.44397	647.82465	4.45087	741.36957	-982.88983	
1752	17.510	-696.86432	-3.96293	-575.68579	718.22266	4.74242	-490.77008	-767.99371	4.97743	643.65717	801.32245	11.43281	647.80634	4.50678	741.31488	-982.86145	
1753	17.520	-696.89429	-3.88860	-575.68292	718.22742	4.87464	-490.76611	-768.13025	4.70521	643.58661	801.33917	11.11871	647.49854	4.51648	741.36023	-982.87012	
1754	17.530	-696.85327	-3.91908	-575.70135	718.24292	4.82338	-490.74670	-768.08820	4.77709	643.59436	801.34943	10.87752	647.42328	4.52266	741.42255	-982.90247	
1755	17.540	-696.88049	-3.86471	-575.65845	718.21344	4.86176	-490.78888	-768.15009	4.65368	643.60352	801.26880	11.04556	647.55560	4.37682	741.53430	-982.75580	
1756	17.550	-696.86725	-3.87397	-575.68390	718.04449	5.17166	-490.95490	-768.14771	4.77676	643.58771	801.19849	11.07131	647.48468	4.41406	741.48615	-982.81451	
1757	17.560	-696.90588	-3.86875	-575.66895	718.07800	5.09769	-490.90402	-768.10156	4.90164	643.65405	801.21204	11.16926	647.57849	4.46865	741.44879	-982.77637	
1758	17.570	-696.88055	-3.87115	-575.67346	718.23352	4.88288	-490.75159	-768.14136	4.83076	643.57538	801.29401	11.39288	647.80499	4.43147	741.43890	-982.75659	
1759	17.580	-696.87488	-3.90140	-575.68298	718.27777	4.83153	-490.76755	-768.11285	4.79086	643.59961	801.24567	11.04420	647.42554	4.38056	741.45099	-982.76074	
1760	17.590	-696.90063	-3.90329	-575.70374	718.07745	5.05253	-490.88889	-768.13361	4.78585	643.56378	801.33600	11.40023	647.81610	4.39534	741.41962	-982.72223	
1761	17.600	-696.87384	-3.92677	-575.69043	718.20178	4.81405	-490.79556	-768.13074	4.78556	643.60022	801.33679	11.39847	647.80298	4.50737	741.31573	-982.87708	
1762	17.610	-696.84131	-3.92940	-575.68591	718.21814	4.86838	-490.77148	-768.10883	4.86884	643.60260	801.29602	11.43411	647.83978	4.48363	741.33618	-982.88312	
1763	17.620	-696.88422	-3.90118	-575.68176	718.27332	4.89189	-490.74115	-768.08862	4.83062	643.61200	801.29858	11.40355	647.83124	4.53778	741.36975	-982.93585	
1764	17.630	-696.87543	-3.91840	-575.67017	718.28625	4.91403	-490.74625	-768.17529	4.77001	643.60931	801.24182	11.13244	647.56793	4.51737	741.33917	-983.07373	
1765	17.640	-696.88171	-3.86436	-575.68506	718.22797	4.91787	-490.76727	-768.13000	4.81362	643.59064	801.21863	11.04012	647.49841	4.48820	741.35553	-983.03741	
1766	17.650	-696.88751	-3.90177	-575.67944	718.24170	4.84022	-490.78082	-768.11298	4.75407	643.57715	801.25537	10.92990	647.44568	4.51867	741.36304	-983.04590	
1767	17.660	-696.84528	-3.91160	-575.66003	718.19360	4.88252	-490.75531	-768.16742	4.78502	643.58942	801.36603	11.17026	647.57458	4.53754	741.36639	-982.95270	
1768	17.670	-696.84637	-3.91694	-575.68121	718.28021	4.93253	-490.76654	-768.15771	4.82390	643.60675	801.34357	11.11872	647.58704	4.46402	741.38965	-982.85040	
1769	17.680	-696.85089	-3.93059	-575.64441	718.31024	4.89833	-490.75980	-768.10614	4.80706	643.61334	801.27423	11.36435	647.83087	4.36438	741.40576	-982.73566	
1770	17.690	-696.87366	-3.90029	-575.68878	718.24176	4.87788	-490.73853	-768.17395	4.80173	643.58826	801.30267	11.14137	647.50824	4.35728	741.42242	-982.63397	
1771	17.700	-696.88379	-3.90499	-575.68848	718.20032	4.82783	-490.76477	-768.12708	4.74485	643.56140	801.29291	11.09014	647.49451	4.36327	741.37860	-982.68738	
1772	17.710	-696.87347	-3.94037	-575.71918	718.16534	4.82542	-490.81668	-768.16333	4.76784	643.57446	801.34943	11.24204	647.54828	4.31227	741.38477	-982.67358	
1773	17.720	-696.87708	-3.90263	-575.68073	718.16357	4.83960	-490.76294	-768.13324	4.78851	643.58453	801.25586	11.19334	647.52979	4.40954	741.43994	-982.75708	
1774	17.730	-696.88086	-3.89619	-575.69342	718.28143	4.90872	-490.74924	-768.13800	4.77642	643.61890	801.27222	11.17352	647.52460	4.44577	741.40265	-982.86255	
1775	17.740	-696.88373	-3.87352	-575.66516	718.28186	4.93558	-490.69849	-768.11249	4.76662	643.59851	801.22491	11.28753	647.80438	4.49856	741.38690	-982.95050	
1776	17.750	-696.88074	-3.89219	-575.68134	718.23254	4.92046	-490.75485	-768.14789	4.74915	643.60321	801.29724	11.03455	647.45587	4.51596	741.34644	-983.03607	
1777	17.760	-696.89972	-3.89011	-575.68115	718.21619	4.84544	-490.79926	-768.12451	4.73633	643.55518	801.28918	11.02978	647.43292	4.48930	741.36963	-983.06519	
1778	17.770	-696.89783	-3.86154	-575.65948	718.17029	4.83238	-490.82147	-768.11731	4.75389	643.55872	801.25134	11.37634	647.81714	4.47640	741.34778	-983.05621	
1779	17.780	-696.87708	-3.89733	-575.68469	718.25610	4.85333	-490.77567	-768.10803	4.81133	643.57239	801.29333	11.15346	647.49097	4.53616	741.32874	-983.00934	
1780	17.790	-696.88837	-3.89577	-575.67780	718.13593	5.12026	-490.93988	-768.15540	4.82077	643.59705	801.19958	11.37608	647.81958	4.44736	741.33624	-982.90723	
1781	17.800	-696.87195	-3.92671	-575.69080	718.23376	4.83661	-490.76926	-768.15491	4.85412	643.58563	801.18005	11.33174	647.75385	4.45319	741.35504	-982.79852	
